<?xml version="1.0" encoding="utf-8"?>
<!-- Generator: Adobe Illustrator 14.0.0, SVG Export Plug-In . SVG Version: 6.00 Build 43363)  -->
<!DOCTYPE svg PUBLIC "-//W3C//DTD SVG 1.1//EN" "http://www.w3.org/Graphics/SVG/1.1/DTD/svg11.dtd">
<svg version="1.1" id="Layer_1" xmlns="http://www.w3.org/2000/svg" xmlns:xlink="http://www.w3.org/1999/xlink" x="0px" y="0px"
	 width="144px" height="60px" viewBox="0 0 144 60" enable-background="new 0 0 144 60" xml:space="preserve">
<g>
	<linearGradient id="SVGID_1_" gradientUnits="userSpaceOnUse" x1="1" y1="45.3906" x2="141.7239" y2="45.3906">
		<stop  offset="0" style="stop-color:#DAC463"/>
		<stop  offset="1" style="stop-color:#EEE3A6"/>
	</linearGradient>
	<polygon fill="url(#SVGID_1_)" points="76.132,57.273 81.432,57.273 81.432,47.959 91.891,47.959 91.891,43.301 81.432,43.301 
		81.432,38.167 92.436,38.167 92.436,33.509 76.132,33.509 	"/>
	<linearGradient id="SVGID_2_" gradientUnits="userSpaceOnUse" x1="1" y1="45.3906" x2="141.7239" y2="45.3906">
		<stop  offset="0" style="stop-color:#DAC463"/>
		<stop  offset="1" style="stop-color:#EEE3A6"/>
	</linearGradient>
	<polygon fill="url(#SVGID_2_)" points="34.868,47.652 45.499,47.652 45.499,43.131 34.868,43.131 34.868,38.234 46.688,38.234 
		46.688,33.509 29.57,33.509 29.57,57.273 47.061,57.273 47.061,52.583 34.868,52.583 	"/>
	<linearGradient id="SVGID_3_" gradientUnits="userSpaceOnUse" x1="1" y1="14.6929" x2="141.7239" y2="14.6929">
		<stop  offset="0" style="stop-color:#DAC463"/>
		<stop  offset="1" style="stop-color:#EEE3A6"/>
	</linearGradient>
	<path fill="url(#SVGID_3_)" d="M20.434,24.936c1.198-1.345,1.798-2.893,1.798-4.646c-0.001-1.583-0.463-2.909-1.386-3.977
		c-0.922-1.066-2.163-1.769-3.721-2.105c0.432-0.191,0.73-0.329,0.898-0.414c0.167-0.084,0.468-0.293,0.9-0.63
		c1.27-0.96,1.905-2.423,1.905-4.392c0-1.633-0.563-3.096-1.689-4.393c-0.624-0.696-1.553-1.247-2.787-1.656
		c-1.236-0.408-2.703-0.612-4.405-0.612H2.166v25.164h11.002C16.621,27.275,19.042,26.496,20.434,24.936z M7.776,6.863h2.696
		c1.654,0,2.828,0.18,3.525,0.54c0.695,0.359,1.042,1.099,1.042,2.214c0,1.116-0.378,1.842-1.133,2.178
		c-0.755,0.337-1.912,0.504-3.47,0.504h-2.66V6.863z M7.776,22.524v-5.797h3.307c1.871,0,3.231,0.188,4.082,0.559
		c0.851,0.372,1.276,1.141,1.276,2.303c0,1.165-0.401,1.944-1.205,2.341c-0.802,0.396-2.008,0.594-3.614,0.594H7.776z"/>
	<linearGradient id="SVGID_4_" gradientUnits="userSpaceOnUse" x1="1" y1="45.3906" x2="141.7239" y2="45.3906">
		<stop  offset="0" style="stop-color:#DAC463"/>
		<stop  offset="1" style="stop-color:#EEE3A6"/>
	</linearGradient>
	<polygon fill="url(#SVGID_4_)" points="18.601,48.809 6.952,33.509 1.993,33.509 1.993,57.273 7.292,57.273 7.292,42.383 
		18.601,57.273 23.899,57.273 23.899,33.509 18.601,33.509 	"/>
	<linearGradient id="SVGID_5_" gradientUnits="userSpaceOnUse" x1="1" y1="14.8179" x2="141.7239" y2="14.8179">
		<stop  offset="0" style="stop-color:#DAC463"/>
		<stop  offset="1" style="stop-color:#EEE3A6"/>
	</linearGradient>
	<path fill="url(#SVGID_5_)" d="M42.333,16.007c0,2.016-0.463,3.605-1.385,4.77c-0.923,1.163-2.175,1.746-3.757,1.746
		c-1.584,0-2.841-0.583-3.776-1.746c-0.936-1.164-1.404-2.754-1.404-4.77V2.11h-5.608v14.077c0,3.623,1.012,6.42,3.039,8.388
		c2.025,1.968,4.608,2.951,7.75,2.951c3.14,0,5.717-0.978,7.731-2.934c2.013-1.956,3.02-4.757,3.02-8.405V2.11h-5.61V16.007z"/>
	<linearGradient id="SVGID_6_" gradientUnits="userSpaceOnUse" x1="1" y1="14.6919" x2="141.7239" y2="14.6919">
		<stop  offset="0" style="stop-color:#DAC463"/>
		<stop  offset="1" style="stop-color:#EEE3A6"/>
	</linearGradient>
	<polygon fill="url(#SVGID_6_)" points="59.198,17.41 70.273,17.41 70.273,12.479 59.198,12.479 59.198,7.043 70.848,7.043 
		70.848,2.11 53.587,2.11 53.587,27.274 59.198,27.274 	"/>
	<linearGradient id="SVGID_7_" gradientUnits="userSpaceOnUse" x1="1" y1="45.3906" x2="141.7239" y2="45.3906">
		<stop  offset="0" style="stop-color:#DAC463"/>
		<stop  offset="1" style="stop-color:#EEE3A6"/>
	</linearGradient>
	<path fill="url(#SVGID_7_)" d="M70.868,41.396c0-2.767-0.786-4.771-2.36-6.018c-1.574-1.248-4.207-1.871-7.896-1.871h-9.001v23.766
		h5.298v-7.582h3.669l5.264,7.582h6.52l-6.011-8.5C69.363,47.665,70.868,45.204,70.868,41.396z M64.483,44.219
		c-0.656,0.59-1.891,0.885-3.702,0.885h-3.872v-7.039h3.974c1.698,0,2.887,0.238,3.565,0.715c0.679,0.477,1.02,1.355,1.02,2.635
		C65.469,42.695,65.139,43.629,64.483,44.219z"/>
	<linearGradient id="SVGID_8_" gradientUnits="userSpaceOnUse" x1="1" y1="14.6919" x2="141.7239" y2="14.6919">
		<stop  offset="0" style="stop-color:#DAC463"/>
		<stop  offset="1" style="stop-color:#EEE3A6"/>
	</linearGradient>
	<polygon fill="url(#SVGID_8_)" points="75.416,27.274 81.025,27.274 81.025,17.41 92.102,17.41 92.102,12.479 81.025,12.479 
		81.025,7.043 92.677,7.043 92.677,2.11 75.416,2.11 	"/>
	<linearGradient id="SVGID_9_" gradientUnits="userSpaceOnUse" x1="1" y1="30" x2="141.7239" y2="30">
		<stop  offset="0" style="stop-color:#DAC463"/>
		<stop  offset="1" style="stop-color:#EEE3A6"/>
	</linearGradient>
	<path fill="url(#SVGID_9_)" d="M104.025,2v56h37.981V2H104.025z M120.998,35.068c-1.413,1.382-3.152,2.072-5.217,2.072
		c-2.066,0-3.807-0.69-5.219-2.072c-1.414-1.379-2.119-3.096-2.119-5.148s0.705-3.77,2.119-5.15c1.412-1.38,3.151-2.068,5.219-2.068
		c2.064,0,3.804,0.688,5.217,2.068c1.412,1.381,2.118,3.098,2.118,5.15C123.116,31.975,122.41,33.689,120.998,35.068z M134.132,37
		l-3.099-4.46h-2.159V37h-3.118V23.021h5.299c2.172,0,3.721,0.366,4.646,1.1c0.926,0.732,1.391,1.913,1.391,3.54
		c0,2.239-0.888,3.687-2.658,4.339l3.537,5H134.132z"/>
	<linearGradient id="SVGID_10_" gradientUnits="userSpaceOnUse" x1="1" y1="27.7705" x2="141.7239" y2="27.7705">
		<stop  offset="0" style="stop-color:#DAC463"/>
		<stop  offset="1" style="stop-color:#EEE3A6"/>
	</linearGradient>
	<path fill="url(#SVGID_10_)" d="M133.313,26.119c-0.399-0.279-1.099-0.418-2.1-0.418h-2.339v4.139h2.278
		c1.068,0,1.793-0.173,2.181-0.521c0.388-0.346,0.58-0.896,0.58-1.649S133.713,26.4,133.313,26.119z"/>
	<linearGradient id="SVGID_11_" gradientUnits="userSpaceOnUse" x1="1" y1="29.9199" x2="141.7239" y2="29.9199">
		<stop  offset="0" style="stop-color:#DAC463"/>
		<stop  offset="1" style="stop-color:#EEE3A6"/>
	</linearGradient>
	<path fill="url(#SVGID_11_)" d="M115.791,25.42c-1.166,0-2.148,0.439-2.949,1.32c-0.8,0.881-1.199,1.942-1.199,3.189
		c0,1.249,0.399,2.307,1.199,3.18c0.801,0.873,1.783,1.311,2.949,1.311s2.148-0.438,2.947-1.311c0.8-0.873,1.201-1.932,1.201-3.18
		c0-1.247-0.401-2.309-1.201-3.189C117.939,25.859,116.957,25.42,115.791,25.42z"/>
</g>
</svg>
